<svg viewBox="0 0 480 339" xmlns="http://www.w3.org/2000/svg"><path d="m353.59 33.862c-2.063 1.575-1.463 4.01 1.012 4.01 2.25 0 4.05-2.7 2.7-4.05-.563-.563-2.925-.563-3.712.037m4.087-25.8c-3.637 1.313-6.75 4.425-7.462 7.425-.413 1.8-.413 1.913.45 2.625 1.613 1.313 4.387.038 3.863-1.762-.113-.45-.525-1.013-.938-1.313-1.012-.712-.9-1.688.412-3.15 1.763-2.025 4.425-3 7.763-2.813 2.4.112 2.85.262 3.75 1.162 2.25 2.213.9 7.5-2.4 9.675-.787.525-2.4 1.575-3.563 2.325-2.4 1.538-3.037 2.55-3.825 5.888-.525 2.25-.525 2.288.262 2.175.6-.075.9-.563 1.313-2.175.638-2.663 1.463-3.487 5.138-5.325 3.9-1.95 5.213-2.962 6.338-4.912 2.4-4.088 1.238-8.1-2.85-9.788-1.725-.75-6.3-.75-8.25-.037" style="fill:#7fa47a"/><g style="fill:#748ca5"><path d="m462.94 90.45c-1.763.938-2.325 3.3-.975 4.05 2.025 1.05 4.537-.3 4.537-2.438 0-1.838-1.725-2.625-3.563-1.612m4.95-25.95c-4.575 1.162-8.06 4.537-9.04 8.7-.3 1.275.563 2.175 2.063 2.175 2.588 0 3.45-1.8 1.65-3.487-.825-.75-.9-1.013-.6-1.838.412-1.087 2.4-2.85 3.975-3.525 3.112-1.275 6.938-.938 8.7.825.862.863.938 1.2.787 3.15-.225 3.338-1.65 5.287-5.362 7.537-4.237 2.55-4.95 3.525-5.662 7.913-.225 1.237-.15 1.35.488 1.2.563-.15.938-.825 1.35-2.4.338-1.237 1.013-2.55 1.463-3 .45-.412 2.438-1.575 4.387-2.588 4.01-2.063 4.912-2.85 6-5.287 2.25-4.987-.563-9.15-6.413-9.563-1.313-.075-3 0-3.787.188"/><path d="m75.975 105.41c-1.05.825-1.313 2.475-.525 3.262.712.713 2.737.525 3.825-.337 1.05-.825 1.313-2.475.525-3.262-.712-.713-2.737-.525-3.825.337m5.03-26.325c-4.313 1.313-7.763 4.725-8.438 8.363-.225 1.125-.112 1.425.6 1.95 1.088.75 2.175.75 3.262 0 1.088-.75 1.05-1.838-.112-2.925-1.2-1.087-1.162-1.762 0-3.15 3.112-3.713 10.763-4.2 12.6-.788.563 1.125.188 4.01-.787 5.925-.787 1.537-2.775 3.262-5.287 4.575-2.887 1.463-4.05 3.262-4.688 7.163-.225 1.237-.15 1.425.488 1.425.6 0 .825-.412 1.2-2.025.262-1.125.787-2.475 1.2-2.962.375-.525 2.363-1.8 4.35-2.813 4.087-2.1 5.325-3.188 6.45-5.7 1.688-3.675.45-7.01-3.15-8.662-1.575-.713-5.85-.938-7.688-.375"/></g><path d="m103.69 161.44c-1.013.975-1.2 2.4-.487 3.112.675.675 3.112.563 3.975-.225 1.125-.9 1.388-2.438.638-3.225-.938-.938-3.037-.787-4.125.338m4.05-26.03c-5.287 2.063-9.412 9.08-6.04 10.238 1.537.525 3.3-.338 3.3-1.65 0-.563-.338-1.313-.75-1.688-.412-.375-.75-1.05-.75-1.537 0-1.088 2.888-3.638 4.8-4.2 3.225-.975 7.425-.263 8.288 1.35.6 1.125.488 4.01-.188 5.625-.788 1.913-2.175 3.263-5.03 4.95-3.3 1.912-4.088 2.888-4.912 5.888-.863 3.112-.863 3.112.037 3.112.525 0 .825-.375 1.125-1.612.825-3.338 1.388-4.01 5.588-6.15 2.137-1.087 4.238-2.287 4.65-2.625 1.275-1.2 2.55-4.162 2.588-6.075 0-2.325-.825-3.9-2.738-5.175-2.137-1.388-7.05-1.65-9.975-.45m-18.938-102.56c-.563.3-1.162.975-1.275 1.538-.75 2.962 3.675 3.6 5.02.75.45-.9.413-1.163-.075-1.988-.712-1.05-2.1-1.163-3.675-.3m4.763-25.95c-4.763 1.5-8.4 5.25-8.438 8.662 0 1.462.6 2.063 1.987 2.063 2.55 0 3.488-2.213 1.538-3.675-.938-.675-.975-.75-.488-1.763 1.313-2.7 5.887-4.688 9.525-4.125 3.787.563 4.987 3.713 3.037 7.912-.9 1.95-1.95 2.887-5.925 5.137-2.212 1.275-3.075 2.513-3.825 5.4-.75 2.85-.75 2.737.15 2.737.525 0 .825-.413 1.125-1.612.225-.863.487-1.875.6-2.213.3-1.012 2.288-2.475 5.55-4.125 3.675-1.8 4.5-2.55 5.738-4.95.787-1.538.9-2.25.787-4.087-.15-2.063-.3-2.363-1.688-3.675-2.325-2.137-6.112-2.813-9.675-1.688" style="fill:#925849"/><path d="m17.962 253.12c-.862.862-1.087 1.313-.9 1.95.413 1.313.825 1.575 2.288 1.537 2.438-.075 4.01-2.55 2.55-4.01-.938-.975-2.7-.75-3.938.525m5.288-26.662c-2.888.9-6.413 3.525-7.463 5.625-1.688 3.262-1.238 5.287 1.125 5.287 2.362 0 3.188-2.287 1.313-3.787-1.087-.9-.488-2.4 1.575-3.975 2.7-2.025 6.863-2.625 9.45-1.313 1.725.862 2.325 2.063 2.1 4.313-.375 3.487-1.837 5.138-7.35 8.513-1.95 1.162-2.813 2.588-3.525 5.588-.525 2.325-.525 2.325.262 2.212.6-.075.9-.563 1.313-2.175.675-2.662 1.35-3.375 5.475-5.475 1.875-.975 3.9-2.175 4.462-2.738 2.213-2.025 3.338-5.625 2.55-8.02-.563-1.688-2.55-3.487-4.425-3.975-1.612-.45-5.475-.487-6.862-.075m411.11-9.525c-.975.675-1.387 2.213-.862 3.188.3.563.787.75 1.912.75 2.512 0 4.238-2.438 2.738-3.9-.75-.75-2.738-.787-3.788-.037m4.538-25.912c-3.262 1.012-6.9 4.313-7.613 6.862-.6 2.1-.488 3.037.3 3.487 2.738 1.425 5.438-1.537 2.962-3.3-2.512-1.8 2.588-6.075 7.313-6.075 4.463 0 6.338 1.912 5.513 5.737-.713 3.338-1.388 4.088-6.675 7.388-2.4 1.463-3.3 2.7-3.825 5.1-.225 1.013-.487 2.138-.6 2.513-.188.563-.038.675.637.563.675-.075.938-.487 1.313-1.987.788-3.037 1.163-3.412 5.475-5.662 4.612-2.4 5.887-3.675 6.862-6.788.525-1.688.563-2.325.225-3.487-.975-3.3-3.488-4.875-7.725-4.838-1.425 0-3.3.225-4.162.488" style="fill:#7fa47a"/><path d="m104.78 329.25c-.975.375-2.025 1.8-2.025 2.662 0 .9 1.237 1.838 2.4 1.838 1.125 0 3.225-1.8 3.225-2.775 0-.825-1.35-2.1-2.138-2.063-.375 0-1.05.15-1.462.338m48.41-9.04c-1.838.863-3.338 2.4-4.088 4.238-2.512 6 4.275 9.938 9.375 5.475 1.763-1.575 2.513-3.112 2.513-5.362.075-4.162-3.675-6.263-7.8-4.35m274.28-11.85c-3.262 1.238-5.213 3.825-5.213 6.975 0 3.337 2.175 5.175 5.662 4.837 5.85-.563 9.07-8.1 4.8-11.25-1.275-.938-3.563-1.2-5.25-.563m-56.887-8.25c-.9.975-1.088 2.475-.375 3.188.712.713 2.737.525 3.825-.337 1.05-.825 1.313-2.475.525-3.262-.787-.788-3.075-.525-3.975.412m67.5-57.9c-7.388 1.837-15.75 8.25-18.825 14.55-1.463 2.962-2.775 9-2.325 10.725.45 1.763 2.325 2.888 4.838 2.888 4.125 0 6-1.875 5.625-5.588-.225-2.175-.45-2.438-3.075-4.313-.938-.637-.975-.825-.75-2.4.15-.975.563-2.325.938-3.075.787-1.575 4.425-5.1 6.75-6.563 6.487-4.088 17.55-3.9 21.338.375 1.912 2.175 2.4 4.162 2.212 8.7-.15 3.188-.45 4.688-1.275 7.05-2.137 5.85-4.238 8.1-12.975 13.8-7.05 4.65-8.55 6.9-10.387 15.75-.637 3.075-1.162 5.7-1.162 5.888 0 .225.75.375 1.65.375 1.912 0 1.725.338 2.85-4.875 1.162-5.287 1.838-7.05 3.3-8.7 1.425-1.575 5.4-4.162 12.188-7.837 6.263-3.375 8.438-5.438 10.763-10.238 2.475-5.063 3.15-7.8 2.925-11.925-.563-9.375-7.762-15.337-18.487-15.262-1.912 0-4.575.3-6.112.675m-371.89-5.175c-1.425.413-3.788 2.363-4.462 3.638-.788 1.538-1.013 3.862-.488 5.325 1.313 3.787 7.01 3.975 10.275.263 4.35-4.987.862-11.06-5.325-9.225m10.35-66c-5.55 1.425-11.85 5.513-15.75 10.163-2.888 3.45-5.288 9.787-5.288 13.912 0 2.475 2.063 4.01 5.325 4.01 2.4 0 4.2-.975 5.02-2.737.525-1.05.525-1.575.188-3.338-.375-1.8-.637-2.175-2.1-3.225-1.5-1.05-1.688-1.35-1.688-2.625 0-4.35 5.737-9.975 12.375-12.11 3.563-1.163 9.825-1.163 12.9.037 4.65 1.763 6.525 5.213 6.113 11.25-.413 6.075-2.925 11.775-6.75 15.3-.975.862-3.9 3-6.563 4.688-5.175 3.375-8.03 6.15-9.45 9.15-.45.975-1.388 4.462-2.063 7.688l-1.237 5.925h1.762 1.8l1.162-5.325c.75-3.225 1.575-5.925 2.138-6.938 1.2-2.025 4.2-4.162 11.7-8.287 8.925-4.987 10.425-6.45 13.462-13.463 4.762-11.1.038-21.75-10.8-24.3-3.337-.787-8.85-.675-12.262.225m345.9-26.587c-1.763.938-2.213 2.7-1.013 3.787.9.825 1.875.788 3.375-.112.975-.6 1.2-.975 1.2-2.063 0-1.838-1.725-2.625-3.563-1.612m4.5-25.8c-4.763 1.5-8.4 5.25-8.438 8.662 0 1.463.6 2.063 1.987 2.063 2.55 0 3.45-2.063 1.538-3.563-.938-.75-.975-.862-.488-1.875 1.875-3.938 9.563-5.662 12.413-2.813.862.9 1.05 1.388 1.05 2.888 0 2.137-1.05 4.612-2.513 5.962-.563.525-2.175 1.65-3.563 2.438-3.525 2.063-4.087 2.888-4.987 7.35-.225 1.05-.15 1.237.487 1.237.563 0 .825-.412 1.163-1.763.825-3.188 1.238-3.638 5.55-5.85 2.25-1.125 4.425-2.475 4.875-2.963 1.95-2.1 2.962-6.3 1.95-8.287-1.725-3.338-6.6-4.875-11.03-3.488m-403.31-34.762c-3.45 1.237-5.888 5.475-4.875 8.55.675 2.1 2.325 3.188 4.725 3.188 6.15 0 9.9-6.825 5.962-10.763-1.087-1.087-1.462-1.237-3.225-1.2-1.125 0-2.288.113-2.587.225m101.47-3.6c-1.238.975-1.387 3.113-.188 3.713 1.725.938 4.463-.675 4.463-2.625 0-1.912-2.438-2.513-4.275-1.088m283.09-2.775c-3.713 1.95-5.4 6.375-3.563 9.375.825 1.387 1.612 1.875 3.188 2.025 2.362.188 3.487-.075 5.063-1.125 2.325-1.575 3.375-3.45 3.375-6.188 0-1.988-.112-2.287-1.275-3.45-1.162-1.163-1.462-1.275-3.45-1.275-1.275.037-2.7.3-3.338.638m-278.7-23.18c-2.737.938-5.85 3.413-6.787 5.363-1.163 2.438-1.35 3.862-.638 4.575.825.825 2.925.787 3.675-.075.9-.975.788-1.763-.375-2.888l-1.05-.938.75-1.388c.487-.862 1.463-1.762 2.813-2.512 1.8-1.013 2.4-1.163 4.95-1.163 2.325 0 3.075.15 3.938.788 1.425 1.05 1.912 3.038 1.275 5.325-.6 2.4-2.063 4.125-5.02 5.888-3.563 2.175-4.575 3.263-5.288 5.775-.787 2.775-.75 3.412.075 3.412.525 0 .825-.487 1.163-1.987.225-1.125.712-2.363 1.012-2.85.338-.45 2.137-1.575 4.01-2.55 4.8-2.4 5.438-2.925 6.675-5.512 1.2-2.513 1.35-4.125.563-5.962-1.5-3.525-6.787-5.03-11.738-3.3m158.89-36.9c-4.388 1.2-8.138 4.837-8.55 8.25-.225 2.025.15 2.438 2.212 2.438 2.325 0 3-1.837 1.238-3.487-.938-.863-.938-.938-.375-2.063.6-1.2 1.762-2.138 3.975-3.263 1.725-.9 5.737-.938 7.388-.075 1.537.825 1.987 1.65 1.987 3.75 0 3.413-1.463 5.513-5.625 7.988-3.15 1.875-4.275 3.075-4.8 5.063-.3 1.163-.45 1.275-1.613 1.2-8.06-.45-20.512-.525-25.2-.15-10.8.863-21.6 2.962-31.575 6.075-5.85 1.837-14.287 5.137-18.263 7.125-1.612.825-3.037 1.462-3.225 1.462-.188 0-.675-.712-1.05-1.575-1.65-3.675-6.488-7.387-11.175-8.512-2.962-.712-9.337-.563-12.525.337-6.15 1.725-12.75 6.337-16.388 11.438-1.987 2.775-2.625 4.163-3.563 8.02-1.275 5.063-.938 6.825 1.65 8.06 1.688.787 3.787.75 5.737-.113 2.063-.938 2.888-2.512 2.55-4.837-.375-2.4-.487-2.588-2.287-3.863-1.463-.975-1.65-1.275-1.65-2.512.037-4.275 5.963-10.238 12.188-12.188 3.45-1.088 9.9-1.163 12.787-.15 3.75 1.313 6.525 4.95 6.525 8.625 0 1.125-.263 1.35-3.975 3.6-32.7 19.837-58.35 54.49-67.61 91.35-2.738 10.912-3.787 18.9-4.05 30.825-.225 10.462.038 14.625 1.8 26.85.6 4.275 1.012 7.913.938 8.1-.113.15-.863.487-1.688.787-.863.263-1.537.6-1.537.713 0 .15.487 2.962 1.088 6.225.6 3.3 1.2 6.938 1.35 8.06.638 5.325 4.987 17.737 8.25 23.513l.862 1.612-4.725 3.487c-5.363 3.938-9.413 6.45-12.45 7.725-1.125.488-3.338 1.5-4.875 2.287-3.225 1.612-8.625 3.412-12.787 4.275-2.625.525-2.963.525-4.05 0-.712-.338-1.575-.488-2.1-.375-1.463.375-15.263 10.01-15.45 10.8-.15.45-.563.675-1.313.675-1.012 0-6.262 3.15-6.862 4.125-.375.638-29.438 19.912-29.438 19.575 0-.188.263-1.163.563-2.213.638-2.1 1.05-2.475 5.438-4.612 3.525-1.725 4.763-2.775 5.888-4.987 2.025-3.938.975-7.65-2.663-9.3-2.175-.975-6.3-.938-9.08.075-4.087 1.538-7.65 6.04-7.2 9.07.15 1.013 1.95 1.575 3.375 1.05.862-.337 1.05-.637 1.05-1.688 0-.938-.225-1.425-.75-1.725-1.275-.675-.938-2.025.9-3.638 1.95-1.725 3.788-2.362 6.75-2.362 4.763 0 6.488 2.963 4.5 7.688-.712 1.688-1.987 2.888-4.987 4.688-1.5.9-3.113 2.138-3.6 2.813-.975 1.237-2.25 5.925-1.688 6.112.188.075-8.325 5.925-18.862 12.975l-19.2 12.9-.112 1.538-.113 1.537h38.85 38.813l7.912-5.287c4.35-2.887 8.175-5.363 8.512-5.512 1.725-.638 6.563-4.05 6.863-4.838.188-.563.637-.862 1.163-.862.487 0 1.725-.563 2.737-1.237 1.05-.713 2.4-1.575 3-1.988l1.125-.713-1.2 1.425c-.675.75-1.35 2.025-1.575 2.775-.863 3.45-.863 3.487-.075 3.487.563 0 .863-.487 1.35-2.175.338-1.163.9-2.438 1.237-2.85.375-.375 2.25-1.5 4.2-2.512 4.088-2.063 4.388-2.288 5.625-4.05 1.237-1.8 1.838-4.35 1.425-6.15-.3-1.388-.225-1.575 1.538-3.75 4.125-5.138 13.238-13.313 19.35-17.288 4.95-3.262 8.175-5.1 8.85-5.1.262 0 3.038 2.625 6.15 5.813l5.625 5.813-1.275 1.612c-1.95 2.438-2.887 4.875-3.975 10.388-.525 2.775-1.088 5.362-1.162 5.7-.188.563.075.675 1.613.675h1.837l.863-4.2c1.087-5.137 2.025-7.837 3.3-9.3 1.688-1.987 2.212-2.1 3.975-.638 3.15 2.55 8.55 6.263 11.963 8.25 1.912 1.125 4.35 2.55 5.4 3.188 2.7 1.688 3.788 1.613 4.575-.3.338-.825.788-1.5.975-1.5.188 0 1.35.638 2.625 1.425 13.5 8.513 30.712 15.263 47.25 18.638 21.975 4.425 42.787 4.05 63.938-1.125l5.25-1.313.975.975c.787.788 1.2.938 2.138.75 1.725-.337 2.287-.938 2.025-2.175-.15-.825-.037-1.125.45-1.313.338-.112 3-1.125 5.888-2.212 3.862-1.463 5.325-1.875 5.55-1.538.488.75 0 4.163-.825 5.85-.825 1.575-1.95 2.512-5.962 4.95-2.475 1.5-3.563 3.3-4.01 6.413-.263 1.612-.188 1.8.45 1.8.6 0 .825-.412 1.2-2.025.262-1.125.787-2.512 1.238-3.037.412-.525 2.4-1.8 4.387-2.775 3.975-2.025 5.25-3.15 6.375-5.662.975-2.1.975-3.938.113-5.7l-.713-1.35 5.1-2.513c10.5-5.138 21.15-12.11 30.563-19.95 5.25-4.387 13.35-12.3 16.912-16.537 1.987-2.363 2.287-2.625 2.737-2.063.713.975.525 3.487-.45 5.625-.938 1.95-2.662 3.525-5.512 4.987-2.813 1.463-4.088 3.375-4.688 7.237-.225 1.2-.15 1.388.488 1.388.6 0 .825-.412 1.2-2.025.262-1.125.787-2.475 1.2-2.962.375-.525 2.363-1.8 4.35-2.813 4.35-2.25 5.175-2.925 6.337-5.475 1.425-3.075 1.163-5.212-.9-7.425l-.938-1.012 3.037-4.087c14.25-19.05 23.7-43.16 26.85-68.33 5.475-43.612-5.325-81.938-31.838-113.21-3.037-3.6-3.075-3.675-2.625-4.8.563-1.35 1.575-2.1 6.112-4.425 3.113-1.612 3.6-1.987 4.575-3.713 1.912-3.3 1.95-5.962.112-8.137-1.462-1.725-3.6-2.588-6.563-2.588-5.775 0-11.06 3.713-12.11 8.55-.487 2.25 1.838 3.525 3.862 2.1 1.088-.75 1.05-1.875-.188-3-.862-.788-.938-1.088-.637-1.913.45-1.275 3.113-3.337 4.95-3.862 3.45-.938 7.2-.075 8.25 1.875.675 1.275.3 4.162-.75 6.112-.6 1.088-1.575 2.025-3.262 3.075-1.35.825-3.3 2.362-4.35 3.412l-1.95 1.875-4.837-4.688c-22.613-21.975-51.3-36.26-81.19-40.43-4.463-.637-4.838-.75-4.838-1.462 0-1.387 1.5-2.775 4.838-4.462 4.087-2.025 5.438-3.15 6.6-5.475 1.838-3.6.938-7.087-2.25-8.85-2.025-1.087-5.438-1.387-8.06-.675m-174.53 298.09c-1.125.938-4.425 2.85-3.787 2.212.487-.525 4.425-3.112 4.688-3.112.112.037-.3.412-.9.9m-77.18-298.28c-5.85.938-11.475 4.01-16.425 9-3.712 3.712-5.287 6.375-6.375 10.913-1.35 5.663-.938 7.275 2.063 8.4 4.2 1.612 8.513-1.125 7.875-4.95-.413-2.475-.563-2.7-2.288-3.862-1.462-1.013-1.65-1.313-1.65-2.55 0-3.375 4.01-8.25 8.925-10.875 5.175-2.738 13.163-3.113 17.738-.788 5.663 2.85 6.413 12.225 1.725 21.15-1.538 2.85-4.613 5.85-8.7 8.438-9.75 6.188-11.212 8.138-13.163 17.813-.487 2.475-.975 4.875-1.087 5.325-.188.787-.075.862 1.612.862h1.8l1.05-4.8c1.313-6 2.175-7.988 4.163-9.75 1.688-1.463 6.3-4.313 12.225-7.538 4.575-2.513 7.087-4.688 8.962-7.837 5.362-9.04 5.25-17.85-.225-23.738-2.137-2.25-4.237-3.525-7.275-4.5-2.663-.825-7.987-1.163-10.95-.712m385.39-6.713c-8.1 1.238-17.14 7.538-20.963 14.588-1.275 2.325-2.475 7.087-2.475 9.825 0 1.875.112 2.212 1.125 3.037 2.213 1.875 5.925 1.725 8.1-.3 1.088-1.05 1.275-1.462 1.275-2.888 0-2.325-.638-3.975-1.838-4.575-1.95-1.013-2.4-1.875-1.988-3.75.525-2.55 2.138-4.913 4.8-7.125 4.238-3.488 8.625-5.1 14.03-5.1 9.3 0 13.688 4.837 12.412 13.763-1.162 8.1-4.8 13.237-12.787 18.15-4.875 2.962-8.662 6.6-9.938 9.487-.713 1.613-3.188 12.15-3.188 13.538 0 .112.787.188 1.763.112l1.762-.112 1.05-4.875c1.5-6.75 2.325-8.362 5.625-10.688 1.462-1.013 4.537-2.888 6.825-4.163 7.313-4.05 8.175-4.612 10.162-6.525 2.25-2.175 5.03-7.388 6.04-11.438.975-3.825.637-8.513-.863-11.737-2.1-4.388-6.3-7.8-11.06-8.85-2.587-.6-7.387-.787-9.862-.375m-381.56 152.85c-1.087.412-2.25 1.763-2.25 2.587 0 2.025 2.55 2.7 4.35 1.163 1.012-.862 1.35-2.588.675-3.263-.487-.45-2.1-.75-2.775-.487m4.987-25.763c-5.137 1.05-9.712 5.55-9.412 9.225.112 1.2.262 1.463 1.2 1.688 2.625.713 4.2-1.725 2.325-3.487-.975-.862-.975-.9-.3-2.175.375-.75 1.388-1.763 2.475-2.438 1.538-.938 2.325-1.162 4.725-1.237 4.725-.225 6.188.975 5.925 4.8-.225 2.963-1.537 4.912-4.537 6.675-3.225 1.95-5.363 4.088-5.85 5.925-.938 3.45-.938 3.9-.113 3.9.638 0 .863-.375 1.238-2.1.262-1.163.788-2.475 1.163-2.963.375-.487 2.325-1.725 4.35-2.775 2.025-1.012 4.125-2.325 4.688-2.85 2.513-2.513 3.3-6.787 1.65-9.225-1.538-2.325-5.888-3.713-9.525-2.963" style="fill:#24252b"/><path d="m308.57 119.94c2.682-.022 2.524 1.325 2.524 2.39 0 1.594-1.163 1.837-2.546 1.837-1.276 0-2.266-.109-2.331-2.036-.041-1.234.298-2.191 2.353-2.191m-.1-1.818c-3.511 0-4.47 1.976-4.398 4.04.111 3.226 2.181 3.782 4.361 3.782 2.366 0 4.731-.779 4.731-3.448 0-1.784-.111-4.413-4.695-4.376m-29.619 2.04c2.682-.022 2.524 1.325 2.524 2.39 0 1.594-1.161 1.837-2.546 1.837-1.276 0-2.265-.11-2.33-2.036-.041-1.233.298-2.19 2.352-2.19m-.099-1.818c-3.512 0-4.47 1.977-4.399 4.04.111 3.226 2.181 3.782 4.361 3.782 2.366 0 4.732-.778 4.732-3.448 0-1.783-.111-4.413-4.694-4.375m-57.12 1.595c2.682-.022 2.525 1.325 2.525 2.39 0 1.594-1.162 1.837-2.547 1.837-1.276 0-2.265-.109-2.33-2.036-.041-1.234.297-2.191 2.352-2.191m-.099-1.818c-3.511 0-4.47 1.976-4.399 4.04.111 3.226 2.181 3.782 4.362 3.782 2.365 0 4.731-.779 4.731-3.448 0-1.784-.111-4.413-4.694-4.376m26.05 1.818c2.682-.022 2.525 1.325 2.525 2.39 0 1.594-1.162 1.837-2.546 1.837-1.276 0-2.266-.109-2.331-2.036-.041-1.234.298-2.191 2.353-2.191m-.099-1.818c-3.511 0-4.47 1.976-4.399 4.04.111 3.226 2.181 3.782 4.361 3.782 2.366 0 4.732-.779 4.732-3.448 0-1.784-.111-4.413-4.695-4.376m22.06 29.628c2.682-.022 2.525 1.325 2.525 2.39 0 1.594-1.163 1.837-2.547 1.837-1.276 0-2.265-.109-2.33-2.035-.041-1.234.297-2.191 2.352-2.191m-.099-1.818c-3.511 0-4.47 1.976-4.399 4.04.111 3.226 2.181 3.783 4.362 3.783 2.365 0 4.731-.779 4.731-3.448 0-1.784-.111-4.413-4.694-4.376m-32.946 2.485c2.682-.022 2.525 1.325 2.525 2.39 0 1.594-1.162 1.837-2.546 1.837-1.276 0-2.266-.109-2.331-2.036-.041-1.234.298-2.191 2.353-2.191m-.099-1.818c-3.511 0-4.47 1.976-4.399 4.04.111 3.226 2.181 3.783 4.361 3.783 2.366 0 4.732-.779 4.732-3.448 0-1.784-.111-4.413-4.694-4.376m-11.877 32.965c2.682-.022 2.525 1.325 2.525 2.39 0 1.594-1.163 1.837-2.547 1.837-1.276 0-2.265-.11-2.33-2.036-.041-1.234.297-2.191 2.352-2.191m-.1-1.817c-3.511 0-4.47 1.976-4.399 4.04.111 3.226 2.181 3.782 4.362 3.782 2.365 0 4.731-.779 4.731-3.448 0-1.784-.111-4.413-4.694-4.375m30.483 7.602c2.682-.022 2.525 1.325 2.525 2.39 0 1.594-1.162 1.837-2.547 1.837-1.276 0-2.265-.109-2.33-2.036-.041-1.233.297-2.19 2.352-2.19m-.099-1.818c-3.511 0-4.47 1.976-4.399 4.04.111 3.226 2.181 3.782 4.362 3.782 2.365 0 4.731-.779 4.731-3.448 0-1.784-.111-4.413-4.694-4.376m41.13.483c2.682-.022 2.525 1.325 2.525 2.39 0 1.594-1.161 1.837-2.546 1.837-1.276 0-2.265-.109-2.33-2.036-.042-1.233.296-2.19 2.351-2.19m-.099-1.818c-3.511 0-4.47 1.977-4.399 4.04.111 3.226 2.181 3.782 4.361 3.782 2.366 0 4.732-.778 4.732-3.448 0-1.784-.111-4.413-4.695-4.376m24.495-5.525c2.68-.022 2.523 1.325 2.523 2.39 0 1.594-1.161 1.837-2.545 1.837-1.278 0-2.266-.11-2.331-2.036-.042-1.233.298-2.191 2.353-2.191m-.1-1.817c-3.511 0-4.47 1.977-4.399 4.04.111 3.227 2.182 3.783 4.361 3.783 2.366 0 4.732-.779 4.732-3.448 0-1.783-.111-4.413-4.694-4.375m-3.893-26.661c2.683-.022 2.526 1.325 2.526 2.391 0 1.594-1.163 1.837-2.548 1.837-1.275 0-2.266-.11-2.331-2.036-.041-1.233.298-2.191 2.353-2.191m-.099-1.817c-3.513 0-4.47 1.976-4.398 4.04.11 3.226 2.179 3.782 4.361 3.782 2.366 0 4.73-.779 4.73-3.448 0-1.784-.11-4.413-4.693-4.375m-23.853 2.04c2.682-.022 2.525 1.325 2.525 2.39 0 1.594-1.163 1.837-2.546 1.837-1.276 0-2.266-.109-2.331-2.036-.041-1.234.298-2.191 2.353-2.191m-.1-1.818c-3.511 0-4.47 1.976-4.399 4.04.111 3.226 2.182 3.783 4.363 3.783 2.365 0 4.731-.779 4.731-3.448 0-1.784-.111-4.413-4.694-4.376m13.05 43.2l-1.11.89v1.112h1.553v5.339h2.219l.138-7.12-2.799-.222m-24.839 7.342l-1.11.89v1.113h1.553v5.339h2.219l.138-7.12-2.799-.223m41.03-64.52l-1.11.89v1.112h1.554v5.34h2.217l.138-7.342h-2.799m-17.743 28.923l-1.107.889v1.113h1.551v5.339h2.217l.139-7.342h-2.801m-69.19-28.923l-1.109.89v1.112h1.553v5.34h2.218l.139-7.342h-2.8m26.17 0l-1.109.89v1.112h1.552v5.34h2.218l.139-7.342h-2.8m31.05 0l-1.109.89v1.112h1.553v5.34h2.217l.139-7.342h-2.801m-8.87 29.368l-1.11.89v1.112h1.553v5.339h2.219l.138-7.342h-2.799m-26.17 0l-1.109.89v1.112h1.553v5.339h2.218l.139-7.342h-2.8m-33.05.445l-1.109.89v1.112h1.553v5.34h2.218l.138-7.342h-2.8m13.751 28.478l-1.109.89v1.112h1.553v5.34h2.218l.139-7.342h-2.8m30.605 7.12l-1.109.89v1.112h1.553v5.339h2.218l.138-7.342h-2.8m96.17-48.06c-1.164-.556-8.593-1.112-8.593-1.112-.333.5-.222 81.65-.222 81.65-15.524-4.728-16.19-5.562-30.993-7.23-24.341-3.728-42.14 3.448-46.19 9.677 1.884-4 10.534-13.516 26.17-14.516 14.97-1.613 40.42 4.671 47.41 6.786.444-4.339.111-88.88.111-88.88-1.332-.167-7.375-.834-8.485-.834-.221.612-.221 81.65-.221 81.65-6.764-2-24.451-3.671-35.15-3-10.7.667-17.798 4.394-22.289 7.452-4.491 3.061-10.423 12.906-10.423 12.906 0 0 4.768-13.684 13.08-18.244 8.263-4.394 16.14-7.123 28.389-6.675 10.645.39 20.459 1.725 20.459 1.725 0 0 .389-79.09-.222-87.38-2.606-.501-5.71-.501-7.153-.445-.333.501-.222 80.985-.222 80.985-2.605-.667-16.965-.501-24.506 1.112-6.568 1.405-14.305 4.06-18.296 7.787-3.993 3.727-14.749 15.352-13.09 25.864 1.109-1.169 5.6-8.01 16.245-10.792 6.449-1.693 17.632-5.282 37.425-1.279 8.238 1.667 31.548 8.623 36.594 11.124.831-3.949.165-88.33.165-88.33m-185.5 0c0 0-.665 84.38.166 88.33 5.05-2.501 28.357-9.457 36.594-11.124 19.794-4 30.978-.414 37.425 1.279 10.646 2.781 15.14 9.622 16.246 10.792 1.663-10.512-9.09-22.14-13.08-25.864-3.992-3.727-11.729-6.382-18.297-7.787-7.54-1.613-21.901-1.779-24.506-1.112 0 0 .11-80.48-.222-80.985-1.442-.056-4.547-.056-7.153.445-.61 8.288-.222 87.38-.222 87.38 0 0 9.814-1.335 20.46-1.725 12.251-.448 20.13 2.281 28.388 6.675 8.317 4.561 13.08 18.244 13.08 18.244 0 0-5.932-9.845-10.424-12.906-4.491-3.058-11.588-6.785-22.289-7.452-10.701-.667-28.388 1-35.15 3 0 0 0-81.04-.222-81.65-1.109 0-7.152.667-8.483.834 0 0-.333 84.54.11 88.88 6.986-2.114 32.436-8.399 47.41-6.786 15.635 1 24.285 10.513 26.17 14.516-4.047-6.229-21.845-13.404-46.19-9.677-14.804 1.668-15.469 2.501-30.994 7.23 0 0 .11-81.15-.222-81.65 0 0-7.43.556-8.594 1.112" style="fill:#fff"/></svg>