<svg viewBox="0 0 320 192" xmlns="http://www.w3.org/2000/svg"><path d="m292.64 143.84h6.24v3.52c.027.347-.16.8-1.12.8-.373.027-6.08 0-6.08 0v-3.04c-.053-.747.16-1.253.96-1.28m-4.48-.32v7.36h11.84c1.253 0 2.747-1.387 2.72-2.56v-7.2h-11.68c-2.347-.027-2.827 1.68-2.88 2.4m-15.84 7.36h3.68v-3.52h11.2v-2.56h-9.92c0 0 .16-1.28 2.08-1.28h7.84v-2.4h-9.12c-4.213 0-5.787 3.813-5.76 4.427v5.333m-15.68-9.76v9.76h3.52v-6.24c6.213 1.547 8.16 6.24 8.16 6.24h3.2v-9.76h-3.68v3.84c-.48-.64-4.267-3.307-8.48-3.84-1.52.053-2.72 0-2.72 0m-4.48 0v9.76h3.52v-9.76h-3.52m-4 7.36v2.4h3.04v-2.4h-3.04m-3.52-16.64h-18.56c-9.493 1.227-9.493 11.413-9.44 12h22.4c.587.64 0 1.92 0 1.92-6.187-.053-22.72 0-22.72 0v5.12h26.72c0 0 3.565-1.653 3.627-5.973.053-3.733-2.24-6.187-4.747-6.187h-16.48c0 0 .213-1.653 1.92-2.08h17.28v-4.8m-50.72 0v4.8h8v14.24h7.04v-14.24h8v-4.8h-23.04m-30.88 0v19.04h7.04v-7.04h14.56v7.04h7.2v-19.04h-7.04v6.88h-14.72v-6.88h-7.04m-65.76 4.8h9.6c2.453 0 2.88 2.24 2.88 2.24h-12.48v-2.24m-7.2-4.8v19.04h7.36v-7.04h10.08c3.947.373 4.64 7.04 4.64 7.04h8c0 0 .213-3.787-4-8.64h4.16c0 0-2.987-9.973-11.52-10.4-4.427.053-18.72 0-18.72 0m69.44 0h-23.2c-2.507.053-5.6 1.491-5.6 3.84v10.88c0 2.187 2.877 4.282 4.747 4.32 2.613.053 13.44 0 20.853 0 1.44.053 4.533-2.24 4.64-5.6.146-4.6-2.188-6.453-4.8-6.56-2.613-.107-12.96 0-12.96 0v5.12c0 0 6.667-.053 9.76 0 1.227 0 1.12 1.973-.32 1.92h-12.96c-1.387-.053-1.867-.907-1.813-1.547.053-2.453.053-5.547.053-5.547 0-1.28 1.013-1.973 2.453-1.973 2.933 0 19.15-.053 19.15-.053v-4.8m-81.44 0h-23.2c-2.507.053-5.6 1.491-5.6 3.84v10.88c0 2.187 2.877 4.282 4.747 4.32 2.613.053 13.44 0 20.853 0 1.44.053 4.533-2.24 4.64-5.6.146-4.6-2.188-6.453-4.8-6.56-2.613-.107-12.96 0-12.96 0v5.12c0 0 6.667-.053 9.76 0 1.227 0 1.12 1.973-.32 1.92h-12.96c-1.387-.053-1.867-.907-1.813-1.547.053-2.453.053-5.547.053-5.547 0-1.28 1.013-1.973 2.453-1.973 2.933 0 19.15-.053 19.15-.053v-4.8m43.68 0v19.04h7.36v-19.04h-7.36m-40.32 0v19.04h7.36v-19.04h-7.36m-41.12 0v19.04h7.36v-19.04h-7.36m-23.2 4.8h11.217c1.517.038 3.38.651 3.342 2.777-.028 1.564 0 6.343 0 6.343h-14.56v-9.12m-7.2-4.8v18.88h28.8c0 0-.039-11.883 0-14.08.053-2.987-3.467-4.747-5.6-4.8h-23.2m173.06-107.52c1.935-.016 1.822.953 1.822 1.719 0 1.146-.839 1.321-1.837 1.321-.921 0-1.634-.079-1.681-1.464-.03-.887.215-1.576 1.697-1.576m-.072-1.307c-2.533 0-3.225 1.421-3.173 2.907.08 2.32 1.573 2.72 3.147 2.72 1.707 0 3.413-.56 3.413-2.48 0-1.282-.08-3.173-3.387-3.147m-21.368 1.467c1.935-.016 1.822.953 1.822 1.719 0 1.146-.839 1.321-1.837 1.321-.921 0-1.634-.079-1.681-1.464-.03-.887.215-1.576 1.697-1.576m-.072-1.307c-2.533 0-3.225 1.421-3.173 2.907.08 2.32 1.573 2.72 3.147 2.72 1.707 0 3.413-.56 3.413-2.48 0-1.282-.08-3.173-3.387-3.147m-41.21 1.147c1.935-.016 1.822.953 1.822 1.719 0 1.146-.838 1.321-1.837 1.321-.921 0-1.634-.079-1.681-1.464-.03-.887.215-1.576 1.697-1.576m-.072-1.307c-2.533 0-3.225 1.421-3.173 2.907.08 2.32 1.573 2.72 3.147 2.72 1.707 0 3.413-.56 3.413-2.48 0-1.282-.08-3.173-3.387-3.147m18.792 1.307c1.935-.016 1.822.953 1.822 1.719 0 1.146-.839 1.321-1.837 1.321-.921 0-1.634-.079-1.681-1.464-.03-.887.215-1.576 1.697-1.576m-.072-1.307c-2.533 0-3.225 1.421-3.173 2.907.08 2.32 1.573 2.72 3.147 2.72 1.707 0 3.413-.56 3.413-2.48 0-1.282-.08-3.173-3.387-3.147m15.912 21.307c1.935-.016 1.822.953 1.822 1.719 0 1.147-.838 1.321-1.837 1.321-.921 0-1.634-.079-1.681-1.464-.03-.887.215-1.576 1.697-1.576m-.072-1.307c-2.533 0-3.225 1.421-3.173 2.907.08 2.32 1.573 2.72 3.147 2.72 1.707 0 3.413-.56 3.413-2.48 0-1.282-.08-3.173-3.387-3.147m-23.768 1.787c1.935-.016 1.822.953 1.822 1.719 0 1.146-.839 1.321-1.837 1.321-.921 0-1.634-.079-1.681-1.464-.03-.887.215-1.576 1.697-1.576m-.072-1.307c-2.533 0-3.225 1.421-3.173 2.907.08 2.32 1.573 2.72 3.147 2.72 1.707 0 3.413-.56 3.413-2.48 0-1.282-.08-3.173-3.387-3.147m-8.568 23.707c1.935-.016 1.822.953 1.822 1.719 0 1.147-.838 1.321-1.837 1.321-.921 0-1.634-.079-1.681-1.464-.03-.887.215-1.576 1.697-1.576m-.072-1.307c-2.533 0-3.225 1.421-3.173 2.907.08 2.32 1.573 2.72 3.147 2.72 1.707 0 3.413-.56 3.413-2.48 0-1.283-.08-3.173-3.387-3.147m21.992 5.467c1.935-.016 1.822.953 1.822 1.719 0 1.147-.839 1.321-1.837 1.321-.921 0-1.634-.079-1.681-1.464-.03-.887.215-1.576 1.697-1.576m-.072-1.307c-2.533 0-3.225 1.421-3.173 2.907.08 2.32 1.573 2.72 3.147 2.72 1.707 0 3.413-.56 3.413-2.48 0-1.282-.08-3.173-3.387-3.147m29.672.347c1.935-.016 1.822.953 1.822 1.719 0 1.147-.839 1.321-1.837 1.321-.921 0-1.634-.079-1.681-1.464-.03-.887.215-1.576 1.697-1.576m-.072-1.307c-2.533 0-3.225 1.421-3.173 2.907.08 2.32 1.573 2.72 3.147 2.72 1.707 0 3.413-.56 3.413-2.48 0-1.282-.08-3.173-3.387-3.147m17.672-3.973c1.935-.016 1.822.953 1.822 1.719 0 1.147-.839 1.321-1.837 1.321-.921 0-1.634-.079-1.681-1.464-.03-.887.214-1.576 1.697-1.576m-.072-1.307c-2.533 0-3.225 1.421-3.173 2.907.08 2.32 1.573 2.72 3.147 2.72 1.707 0 3.413-.56 3.413-2.48 0-1.282-.08-3.173-3.387-3.147m-2.808-19.17c1.935-.016 1.822.953 1.822 1.719 0 1.147-.839 1.321-1.837 1.321-.921 0-1.634-.079-1.681-1.464-.03-.887.215-1.576 1.697-1.576m-.072-1.307c-2.533 0-3.225 1.421-3.173 2.907.08 2.32 1.573 2.72 3.147 2.72 1.707 0 3.413-.56 3.413-2.48 0-1.282-.08-3.173-3.387-3.147m-17.208 1.467c1.935-.016 1.822.953 1.822 1.719 0 1.146-.839 1.321-1.837 1.321-.921 0-1.634-.079-1.681-1.464-.03-.887.215-1.576 1.697-1.576m-.072-1.307c-2.533 0-3.225 1.421-3.173 2.907.08 2.32 1.573 2.72 3.147 2.72 1.707 0 3.413-.56 3.413-2.48 0-1.282-.08-3.173-3.387-3.147m9.413 31.07l-.8.64v.8h1.12v3.84h1.6l.1-5.12-2.02-.16m-17.92 5.28l-.8.64v.8h1.12v3.84h1.6l.1-5.12-2.02-.16m29.6-46.4l-.8.64v.8h1.12v3.84h1.6l.1-5.28h-2.02m-12.8 20.8l-.8.64v.8h1.12v3.84h1.6l.1-5.28h-2.02m-49.92-20.8l-.8.64v.8h1.12v3.84h1.6l.1-5.28h-2.02m18.88 0l-.8.64v.8h1.12v3.84h1.6l.1-5.28h-2.02m22.4 0l-.8.64v.8h1.12v3.84h1.6l.1-5.28h-2.02m-6.4 21.12l-.8.64v.8h1.12v3.84h1.6l.1-5.28h-2.02m-18.88 0l-.8.64v.8h1.12v3.84h1.6l.1-5.28h-2.02m-23.84.32l-.8.64v.8h1.12v3.84h1.6l.1-5.28h-2.02m9.92 20.48l-.8.64v.8h1.12v3.84h1.6l.1-5.28h-2.02m22.08 5.12l-.8.64v.8h1.12v3.84h1.6l.1-5.28h-2.02m69.38-34.56c-.84-.4-6.2-.8-6.2-.8-.24.36-.16 58.72-.16 58.72-11.2-3.4-11.68-4-22.36-5.2-17.56-2.68-30.4 2.48-33.32 6.96 1.36-2.88 7.6-9.72 18.88-10.44 10.8-1.16 29.16 3.36 34.2 4.88.32-3.12.08-63.92.08-63.92-.96-.12-5.32-.6-6.12-.6-.16.44-.16 58.72-.16 58.72-4.88-1.44-17.64-2.64-25.36-2.16-7.72.48-12.84 3.16-16.08 5.36-3.24 2.2-7.52 9.28-7.52 9.28 0 0 3.44-9.84 9.44-13.12 5.96-3.16 11.641-5.122 20.48-4.8 7.68.28 14.76 1.24 14.76 1.24 0 0 .28-56.88-.16-62.84-1.88-.36-4.12-.36-5.16-.32-.24.36-.16 58.24-.16 58.24-1.88-.48-12.24-.36-17.68.8-4.738 1.01-10.32 2.92-13.2 5.6-2.88 2.68-10.64 11.04-9.44 18.6.8-.84 4.04-5.76 11.72-7.76 4.651-1.218 12.72-3.8 27-.92 5.943 1.198 22.76 6.2 26.4 8 .6-2.84.12-63.52.12-63.52m-133.82 0c0 0-.48 60.68.12 63.52 3.64-1.8 20.457-6.802 26.4-8 14.28-2.88 22.349-.298 27 .92 7.68 2 10.92 6.92 11.72 7.76 1.2-7.56-6.56-15.92-9.44-18.6-2.88-2.68-8.462-4.59-13.2-5.6-5.44-1.16-15.8-1.28-17.68-.8 0 0 .08-57.88-.16-58.24-1.04-.04-3.28-.04-5.16.32-.44 5.96-.16 62.84-.16 62.84 0 0 7.08-.96 14.76-1.24 8.839-.322 14.52 1.64 20.48 4.8 6 3.28 9.44 13.12 9.44 13.12 0 0-4.28-7.08-7.52-9.28-3.24-2.2-8.36-4.88-16.08-5.36-7.72-.48-20.48.72-25.36 2.16 0 0 0-58.28-.16-58.72-.8 0-5.16.48-6.12.6 0 0-.24 60.8.08 63.92 5.04-1.52 23.4-6.04 34.2-4.88 11.28.72 17.52 7.56 18.88 10.44-2.92-4.48-15.76-9.64-33.32-6.96-10.68 1.2-11.16 1.8-22.36 5.2 0 0 .08-58.36-.16-58.72 0 0-5.36.4-6.2.8" style="fill:#fff"/></svg>