<svg viewBox="0 0 475 276" xmlns="http://www.w3.org/2000/svg"><defs><linearGradient id="0" x1="0.7598%" y1="59.7188%" x2="98.1343%" y2="60.0819%"><stop offset="0%" style="stop-color:#597aa1"/><stop offset="51.6667%" style="stop-color:#32a480"/><stop offset="100%" style="stop-color:#3e8dcb"/></linearGradient></defs><path d="m474.76 117.28c.181 3.409.083 10.982-.146 13.01-1.107 9.03-4.836 13.183-11.553 12.938-2.738-.119-5.275-.938-13.06-4.211-6.247-2.592-8.914-3.112-12.668-2.358l-2.79.551-.827 1.763c-2.032 4.303-1.593 10.755 1.717 23.611 1.177 4.631 3.974 16.899 6.161 27.2l3.981 18.756-1.672.702c-.962.397-15.469 3.618-32.3 7.213-33.964 7.216-32.578 6.807-36.738 10.398l-1.966 1.694.578 2.357c.359 1.512 1.124 3.287 2.132 4.933 1.773 2.879 2.12 3.231 7.462 8.686 4.04 4.065 6.159 6.561 7.531 8.827.992 1.572.937 2.591-.284 5.599-1.677 4.15-6.225 7.551-15.318 11.448-6 2.585-9.633 3.546-13.11 3.391-1.25-.046-5.231.37-8.83.937-3.607.53-7.202.941-8.03.883-2.873-.206-11.732-4.337-13.285-6.178-.882-1.053-1.303-3.946-.93-6.388.201-1.243 1.254-4.68 2.328-7.657 3.166-8.454 3.996-11.844 3.493-14.216-.566-2.669-2.815-4.866-6.265-6.151l-1.987-.781-33.05 6.79c-18.15 3.758-33.998 6.875-35.15 6.925l-2.103.135-.808-2.347c-.469-1.295-3.557-14.934-6.896-30.3-6.334-29.3-7.579-34.07-8.954-34.708-3.828-1.786-8.299-1.306-11.675 1.228-1.106.815-3.863 3.527-6.161 6.03-4.801 5.314-7.557 7.484-10.564 8.468-6.749 2.162-12.158-1.962-16.925-12.922-1.956-4.467-4.437-14.516-5.03-20.05-.833-8.306-.253-12.147 2.958-19.293.993-2.262 1.714-4.158 1.616-4.253-.127-.051-.697.186-1.317.549-.621.363-2.51.956-4.29 1.333l-3.152.666-2.758-1.857c-1.581-1.06-4.55-3.725-7.094-6.402-4.193-4.42-5.858-5.694-8.156-6.294-4.393-1.163-8.397 1.697-12.366 8.927-3.655 6.698-6.349 14.82-6.997 21.08-1.265 12.12 1.064 23.09 5.477 25.993 3.724 2.389 8.219 1.478 17.611-3.567 5.387-2.92 6.423-3.333 8.931-3.746 2.434-.398 3.059-.376 4.398.271 4.225 2.01 4.82 5.914 2.679 18.1-1.375 7.765-4.246 23.632-5.982 32.984-.715 3.753-1.525 8.882-1.808 11.382-.716 5.573-1.349 8.07-2.653 10.321-2.02 3.448-3.972 3.744-12.627 1.855-11.1-2.457-23.454-4.61-31.92-5.609-19.277-2.278-23.17-3.818-25.02-9.817-1.32-4.214.525-7.935 7.576-15.428 7.521-8.02 9.233-11.09 8.426-15.259-.354-1.668-.665-2.222-2.283-3.817-6.709-6.599-16.73-10.175-29.934-10.677-7.03-.257-13.893 1-17.04 3.174-1.755 1.223-3.471 3.91-3.95 6.218-.648 3.158.533 9.454 3.106 16.463 1.098 2.983 2.186 5.735 2.399 6.193.343.702-.072 1.487-2.367 4.916l-2.734 4.102-2.866.373c-5.732.746-12.461.077-29.881-2.942-21.2-3.654-31.694-6.01-36.07-7.986-2.01-.892-2.071-.995-2.472-2.886-.354-1.668-.012-4.258 2.561-18.241 1.621-8.979 3.675-20.297 4.578-25.17.865-4.869 2.25-12.404 3.04-16.716 9.913-54.26 17.649-98.15 18.626-105.6 1.178-8.692 2.236-13.02 3.795-15.171 1.171-1.603 1.311-1.672 3.287-1.857 2.317-.219 3.159-.087 25.333 3.787 23.18 4.048 31.635 6.095 39.908 9.653 2.899 1.246 3.451 2.02 4.101 5.446.705 3.686-.915 7.01-5.898 12.01-4.851 4.898-6.595 7.087-7.447 9.281-2.143 5.604.176 10.691 6.173 13.568 4.098 1.962 15.1 5.987 19.15 6.99 6.54 1.6 8.852 1.538 17.649-.283 7.306-1.544 7.632-1.651 8.609-2.71.536-.578 1.254-2.124 1.596-3.436.526-2.087.511-2.703-.194-5.846-.533-2.327-1.649-5.577-3.346-9.556-3.747-8.891-4.102-12.573-1.515-16.45 1.06-1.58 1.023-1.572 3.235-1.923 4.601-.779 11.397-.162 23.708 2.155 4.68.87 12.494 2.085 17.423 2.67 14.09 1.747 20.226 3.278 23.17 5.831 1.232 1.057 1.43 1.441 1.888 3.784.689 3.611.082 7.69-2.788 18.637-2.199 8.443-3.054 13-5.353 28.823-1.099 7.785-2.93 15.956-4.21 19.05-.471 1.068-.677 1.924-.528 1.893 1.409-.298 5.73-.204 7.697.116 1.334.261 5.317 1.316 8.839 2.392 7.828 2.374 9.458 2.571 12.757 1.68 2.899-.767 4.591-2.287 6.06-5.424l.915-1.897-6.6-31.1c-4.633-21.833-6.591-31.605-6.546-32.854.1-2.268 1.224-4.093 3.183-5.088 1.146-.629 9.437-2.459 34.03-7.618l32.505-6.792 1.705-2.374c2.151-3.01 2.687-4.867 2.121-7.536-.59-2.78-2.171-5.118-7.01-10.564-4.784-5.379-6.318-7.495-7.627-10.743-.92-2.323-.906-2.442-.279-3.504 1.751-2.888 7.512-7.513 13.02-10.42 5.705-3.065 9.1-4.246 16.44-5.798 6.082-1.285 7.367-1.44 11.182-1.356 8.219.2 14.596 2.492 18.474 6.708 1.168 1.302 1.22 1.369.926 2.903-.538 2.941-1.768 7.19-3.528 11.861-2.034 5.387-3.043 9.396-3.175 12.793-.172 3.755-.043 3.998 3.096 6.01l2.787 1.812 8.731-1.768c4.8-.937 16.808-3.514 26.695-5.68 17.511-3.855 23.789-4.95 31.13-5.417l2.942-.196 7.166 33.769 7.167 33.769 1.308 1.234c.722.661 2.16 1.596 3.221 2.03 1.831.775 2.18.779 5.11.16 3.709-.784 4.963-1.63 10.662-7.094 8.891-8.502 12.903-10.05 18.07-7.07 3.93 2.268 6.524 6.638 10.969 18.635 2.509 6.712 3.44 10 3.551 12.534" style="fill:url(#0)"/></svg>